<svg height="384pt" viewBox="-40 0 384 384" width="384pt" xmlns="http://www.w3.org/2000/svg"><path d="m205.839844 135.96875c-2.863282-4.929688-8.136719-7.96875-13.839844-7.96875h-42.238281l33.511719-107.222656c1.511718-4.855469.628906-10.152344-2.386719-14.25-3.015625-4.09375-7.796875-6.527344-12.886719-6.527344h-152c-8.832031 0-16 7.167969-16 16v192c0 8.832031 7.167969 16 16 16h32v144c0 7.257812 4.878906 13.601562 11.894531 15.464844 1.363281.367187 2.746094.535156 4.105469.535156 5.640625 0 10.992188-2.992188 13.886719-8.0625l128-224c2.832031-4.953125 2.816406-11.042969-.046875-15.96875zm-125.839844 171.785156v-99.753906c0-8.832031-7.167969-16-16-16h-32v-160h114.238281l-33.511719 107.222656c-1.511718 4.855469-.628906 10.152344 2.386719 14.25 3.015625 4.09375 7.796875 6.527344 12.886719 6.527344h36.433594zm0 0"/><path d="m274.496094 224.128906c-5.679688-9.953125-16.328125-16.128906-27.785156-16.128906h-13.429688c-11.457031 0-22.105469 6.175781-27.785156 16.128906l-25.28125 44.230469c-2.75 4.824219-4.214844 10.320313-4.214844 15.886719v83.753906c0 8.832031 7.167969 16 16 16s16-7.167969 16-16v-40h64v40c0 8.832031 7.167969 16 16 16s16-7.167969 16-16v-83.753906c0-5.566406-1.464844-11.0625-4.214844-15.871094zm-66.496094 71.871094v-11.753906l25.289062-44.246094h13.429688l25.28125 44.246094v11.753906zm0 0"/></svg>